# xmcd
#
# Track frame offsets:
#	150
#	20758
#	46602
#	67275
#	88764
#	112284
#	133799
#	151685
#	172370
#	197366
#	218325
#	236251
#	254835
#	292469
#	306183
#
# Disc length: 4433 seconds
#
# Revision: 1
# Processed by: cddbd v1.5.2PL0 Copyright (c) Steve Scherf et al.
# Submitted via: audiograbber 1.83.01
#
DISCID=e5114f0f
DTITLE=Damon and Naomi - The Sub Pop Years
DYEAR=2009
DGENRE=Rock
TTITLE0=Eulogy to Lenny Bruce
TTITLE1=I'm Yours
TTITLE2=Forgot to Get High
TTITLE3=New York City
TTITLE4=Eye of the Storm
TTITLE5=Judah and The Maccabees
TTITLE6=Tour of the World
TTITLE7=Song to the Siren
TTITLE8=The Navigator
TTITLE9=The Mirror Phase
TTITLE10=How Long
TTITLE11=The New World
TTITLE12=The Great Wall
TTITLE13=In the Sun
TTITLE14=Turn of the Century
EXTD=
EXTT0=
EXTT1=
EXTT2=
EXTT3=
EXTT4=
EXTT5=
EXTT6=
EXTT7=
EXTT8=
EXTT9=
EXTT10=
EXTT11=
EXTT12=
EXTT13=
EXTT14=
PLAYORDER=
